<svg width="22" height="22" viewBox="0 0 22 22" fill="none" xmlns="http://www.w3.org/2000/svg">
<path d="M1.83343 22C1.33843 22 0.909058 21.8182 0.545325 21.4547C0.181775 21.0909 0 20.6616 0 20.1666V8.43342C0 7.93843 0.181775 7.50906 0.545325 7.14533C0.909058 6.78178 1.33843 6.6 1.83343 6.6H20.1666C20.6616 6.6 21.0909 6.78178 21.4547 7.14533C21.8182 7.50906 22 7.93843 22 8.43342V20.1666C22 20.6616 21.8182 21.0909 21.4547 21.4547C21.0909 21.8182 20.6616 22 20.1666 22H1.83343ZM1.83343 20.1666H20.1666V8.43342H1.83343V20.1666ZM8.92843 18.4984L15.18 14.3L8.92843 10.12V18.4984ZM1.99843 5.13342V3.3H20.0016V5.13342H1.99843ZM5.5 1.83342V0H16.5V1.83342H5.5Z" fill="#D9D9D9"/>
</svg>
