<svg width="22" height="21" viewBox="0 0 22 21" fill="none" xmlns="http://www.w3.org/2000/svg">
<path d="M10.9955 15.4121C11.8751 15.4121 12.6585 15.1509 13.3457 14.6286C14.033 14.1064 14.5323 13.4329 14.8439 12.6082H7.14705C7.45859 13.4329 7.95797 14.1064 8.64518 14.6286C9.3324 15.1509 10.1158 15.4121 10.9955 15.4121ZM8.2466 11.0139C8.70474 11.0139 9.09416 10.8535 9.41487 10.5328C9.73557 10.2121 9.89592 9.82271 9.89592 9.36456C9.89592 8.90642 9.73557 8.51699 9.41487 8.19629C9.09416 7.87559 8.70474 7.71524 8.2466 7.71524C7.78845 7.71524 7.39903 7.87559 7.07833 8.19629C6.75763 8.51699 6.59728 8.90642 6.59728 9.36456C6.59728 9.82271 6.75763 10.2121 7.07833 10.5328C7.39903 10.8535 7.78845 11.0139 8.2466 11.0139ZM13.7443 11.0139C14.2025 11.0139 14.5919 10.8535 14.9126 10.5328C15.2333 10.2121 15.3937 9.82271 15.3937 9.36456C15.3937 8.90642 15.2333 8.51699 14.9126 8.19629C14.5919 7.87559 14.2025 7.71524 13.7443 7.71524C13.2862 7.71524 12.8968 7.87559 12.5761 8.19629C12.2554 8.51699 12.095 8.90642 12.095 9.36456C12.095 9.82271 12.2554 10.2121 12.5761 10.5328C12.8968 10.8535 13.2862 11.0139 13.7443 11.0139ZM6.21848 4.9147L9.39205 0.797171C9.59968 0.528515 9.84296 0.328489 10.1219 0.197093C10.401 0.0656974 10.6927 0 10.9971 0C11.3015 0 11.5926 0.0656974 11.8704 0.197093C12.1484 0.328489 12.3912 0.528515 12.5989 0.797171L15.7724 4.9147L20.589 6.53323C21.0288 6.67984 21.374 6.93557 21.6245 7.30044C21.8748 7.66512 22 8.06811 22 8.50939C22 8.71299 21.9708 8.91641 21.9123 9.11964C21.854 9.32269 21.7581 9.51731 21.6245 9.7035L18.5274 14.1201L18.6373 18.7932C18.6434 19.3856 18.4448 19.8866 18.0416 20.296C17.6385 20.7052 17.161 20.9098 16.6092 20.9098C16.5746 20.9098 16.3923 20.8823 16.0624 20.8273L10.9955 19.4163L5.93233 20.826C5.83813 20.8635 5.73899 20.8869 5.6349 20.8961C5.53099 20.9052 5.4357 20.9098 5.34902 20.9098C4.79448 20.9098 4.31874 20.704 3.92181 20.2924C3.52469 19.8808 3.33529 19.3749 3.35362 18.7748L3.46357 14.0879L0.37577 9.68535C0.242175 9.49806 0.146148 9.30225 0.0876889 9.09792C0.0292297 8.89359 0 8.68926 0 8.48493C0 8.05115 0.123241 7.65495 0.369722 7.29632C0.616021 6.93768 0.960087 6.68332 1.40192 6.53323L6.21848 4.9147ZM7.3304 6.49667L1.72271 8.3659L5.31438 13.5613L5.18629 19.1046L10.9955 17.5012L16.8046 19.1321L16.6765 13.5613L20.2682 8.42088L14.6605 6.49667L10.9955 1.72271L7.3304 6.49667Z" fill="#D9D9D9"/>
</svg>
