<svg width="18" height="22" viewBox="0 0 18 22" fill="none" xmlns="http://www.w3.org/2000/svg">
<path d="M7.57157 17.325L13.8416 11.055L12.595 9.80842L7.5625 14.8409L4.90407 12.1825L3.66657 13.42L7.57157 17.325ZM1.83342 22C1.33842 22 0.909058 21.8182 0.545325 21.4547C0.181775 21.0909 0 20.6616 0 20.1666V1.83342C0 1.33842 0.181775 0.909059 0.545325 0.545325C0.909058 0.181775 1.33842 0 1.83342 0H11.385L17.6 6.215V20.1666C17.6 20.6616 17.4182 21.0909 17.0547 21.4547C16.6909 21.8182 16.2616 22 15.7666 22H1.83342ZM10.4684 7.07658V1.83342H1.83342V20.1666H15.7666V7.07658H10.4684Z" fill="#D9D9D9"/>
</svg>
